<svg width="666" height="119" viewBox="0 0 666 119" fill="none" xmlns="http://www.w3.org/2000/svg">
<path d="M181.071 64.7956C181.071 81.9648 170.95 89.6777 158.465 89.6777C145.98 89.6777 135.859 81.9648 135.859 64.7956C135.859 57.4816 140.261 47.1094 145.262 37.9406C152.112 25.3819 158.465 14.4485 158.465 14.4485C158.465 14.4485 164.818 25.3819 171.668 37.9406C176.669 47.1094 181.071 57.4816 181.071 64.7956Z" fill="#0038C9"/>
<path d="M45.2113 64.7956C45.2113 81.9648 35.0904 89.6777 22.6056 89.6777C10.1209 89.6777 0 81.9648 0 64.7956C0 57.4816 4.40195 47.1094 9.40275 37.9406C16.2524 25.3819 22.6056 14.4485 22.6056 14.4485C22.6056 14.4485 28.9588 25.3819 35.8085 37.9406C40.8093 47.1094 45.2113 57.4816 45.2113 64.7956Z" fill="#6E95F9"/>
<path d="M135.784 64.7956C135.784 81.9648 125.664 89.6777 113.179 89.6777C100.694 89.6777 90.5732 81.9648 90.5732 64.7956C90.5732 57.4816 94.9752 47.1094 99.976 37.9406C106.826 25.3819 113.179 14.4485 113.179 14.4485C113.179 14.4485 119.532 25.3819 126.382 37.9406C131.383 47.1094 135.784 57.4816 135.784 64.7956Z" fill="#164CD6"/>
<path d="M90.2113 64.3471C90.2113 81.5163 80.0904 89.2292 67.6056 89.2292C55.1209 89.2292 45 81.5163 45 64.3471C45 57.0331 49.402 46.661 54.4028 37.4921C61.2524 24.9334 67.6056 14 67.6056 14C67.6056 14 73.9588 24.9334 80.8085 37.4921C85.8093 46.661 90.2113 57.0331 90.2113 64.3471Z" fill="#3D6BE1"/>
<path d="M633.159 118.112C628.38 118.112 623.644 117.387 618.951 115.936C614.343 114.485 610.375 112.053 607.047 108.64C603.719 105.227 601.969 100.789 601.799 95.3279H615.879C616.049 97.5466 616.903 99.4666 618.439 101.088C619.975 102.795 621.98 104.075 624.455 104.928C626.929 105.781 629.703 106.208 632.775 106.208C636.017 106.208 639.004 105.525 641.735 104.16C644.551 102.88 646.727 101.003 648.263 98.5279C649.884 96.1386 650.695 93.3653 650.695 90.2079V29.4079H665.031V89.6959C665.031 95.4133 663.665 100.405 660.935 104.672C658.204 108.939 654.407 112.224 649.543 114.528C644.764 116.917 639.303 118.112 633.159 118.112ZM628.551 91.3599C623.089 91.3599 618.055 89.9519 613.447 87.1359C608.839 84.3199 605.212 80.4799 602.567 75.6159C599.921 70.7519 598.599 65.4613 598.599 59.7439C598.599 54.0266 599.921 48.7359 602.567 43.8719C605.212 39.0079 608.839 35.1679 613.447 32.3519C618.055 29.5359 623.089 28.1279 628.551 28.1279C634.097 28.1279 638.876 29.4079 642.887 31.9679C646.983 34.5279 650.097 38.1973 652.231 42.9759C654.364 47.7546 655.431 53.3439 655.431 59.7439C655.431 66.1439 654.364 71.7333 652.231 76.5119C650.097 81.2906 646.983 84.9599 642.887 87.5199C638.876 90.0799 634.097 91.3599 628.551 91.3599ZM631.623 78.4319C635.207 78.4319 638.449 77.6213 641.351 75.9999C644.252 74.3786 646.513 72.1599 648.135 69.3439C649.841 66.4426 650.695 63.2426 650.695 59.7439C650.695 56.2453 649.841 53.0879 648.135 50.2719C646.513 47.4559 644.252 45.2373 641.351 43.6159C638.449 41.9946 635.207 41.1839 631.623 41.1839C628.124 41.1839 624.924 42.0373 622.023 43.7439C619.121 45.3653 616.817 47.5839 615.111 50.3999C613.489 53.2159 612.679 56.3306 612.679 59.7439C612.679 63.1573 613.489 66.3146 615.111 69.2159C616.817 72.0319 619.121 74.2933 622.023 75.9999C624.924 77.6213 628.124 78.4319 631.623 78.4319Z" fill="black"/>
<path d="M546.231 91.9999H532.023V29.4079H546.231V91.9999ZM576.823 58.0799C576.823 53.1306 575.415 49.2053 572.599 46.3039C569.869 43.3173 566.242 41.8239 561.719 41.8239C557.026 41.8239 553.271 43.3173 550.455 46.3039C547.639 49.2053 546.231 53.1306 546.231 58.0799H541.879C541.879 52.1066 542.818 46.8586 544.695 42.3359C546.658 37.7279 549.389 34.2293 552.887 31.8399C556.471 29.3653 560.567 28.1279 565.175 28.1279C570.466 28.1279 575.074 29.2799 578.999 31.5839C582.925 33.8026 585.911 37.0453 587.959 41.3119C590.093 45.5786 591.159 50.5706 591.159 56.2879V91.9999H576.823V58.0799Z" fill="black"/>
<path d="M520.083 91.9999H505.747V29.4079H520.083V91.9999ZM483.603 93.2799C478.142 93.2799 473.107 91.8293 468.499 88.9279C463.891 86.0266 460.265 82.0586 457.619 77.0239C454.974 71.9893 453.651 66.5279 453.651 60.6399C453.651 54.7519 454.974 49.3333 457.619 44.3839C460.265 39.3493 463.891 35.3813 468.499 32.4799C473.107 29.5786 478.142 28.1279 483.603 28.1279C489.15 28.1279 493.929 29.4506 497.939 32.0959C502.035 34.7413 505.15 38.5386 507.283 43.4879C509.417 48.3519 510.483 54.0693 510.483 60.6399C510.483 67.2959 509.417 73.0986 507.283 78.0479C505.15 82.9119 502.035 86.6666 497.939 89.3119C493.929 91.9573 489.15 93.2799 483.603 93.2799ZM486.675 79.7119C490.259 79.7119 493.502 78.9013 496.403 77.2799C499.305 75.5733 501.566 73.2693 503.187 70.3679C504.894 67.4666 505.747 64.2239 505.747 60.6399C505.747 57.0559 504.894 53.8559 503.187 51.0399C501.566 48.1386 499.305 45.8773 496.403 44.2559C493.502 42.5493 490.259 41.6959 486.675 41.6959C483.177 41.6959 479.977 42.5493 477.075 44.2559C474.174 45.9626 471.87 48.2666 470.163 51.1679C468.542 54.0693 467.731 57.2266 467.731 60.6399C467.731 64.1386 468.542 67.3386 470.163 70.2399C471.87 73.1413 474.174 75.4453 477.075 77.1519C479.977 78.8586 483.177 79.7119 486.675 79.7119Z" fill="black"/>
<path d="M431.078 2.3999H445.286V91.9999H431.078V2.3999Z" fill="black"/>
<path d="M375.126 91.9999H360.918V29.4079H375.126V91.9999ZM405.718 58.0799C405.718 53.1306 404.31 49.2053 401.494 46.3039C398.763 43.3173 395.137 41.8239 390.614 41.8239C385.921 41.8239 382.166 43.3173 379.35 46.3039C376.534 49.2053 375.126 53.1306 375.126 58.0799H370.774C370.774 52.1066 371.713 46.8586 373.59 42.3359C375.553 37.7279 378.283 34.2293 381.782 31.8399C385.366 29.3653 389.462 28.1279 394.07 28.1279C399.361 28.1279 403.969 29.2799 407.894 31.5839C411.819 33.8026 414.806 37.0453 416.854 41.3119C418.987 45.5786 420.054 50.5706 420.054 56.2879V91.9999H405.718V58.0799Z" fill="black"/>
<path d="M348.841 29.4081V92.0001H334.633V29.4081H348.841ZM341.801 18.6561C339.241 18.6561 337.065 17.7601 335.273 15.968C333.481 14.1761 332.585 12.0427 332.585 9.56805C332.585 7.09338 333.481 4.96005 335.273 3.16805C337.065 1.29072 339.241 0.352051 341.801 0.352051C344.361 0.352051 346.537 1.29072 348.329 3.16805C350.121 4.96005 351.017 7.09338 351.017 9.56805C351.017 12.0427 350.121 14.1761 348.329 15.968C346.537 17.7601 344.361 18.6561 341.801 18.6561Z" fill="black"/>
<path d="M322.693 91.9999H308.357V29.4079H322.693V91.9999ZM286.213 93.2799C280.751 93.2799 275.717 91.8293 271.109 88.9279C266.501 86.0266 262.874 82.0586 260.229 77.0239C257.583 71.9893 256.261 66.5279 256.261 60.6399C256.261 54.7519 257.583 49.3333 260.229 44.3839C262.874 39.3493 266.501 35.3813 271.109 32.4799C275.717 29.5786 280.751 28.1279 286.213 28.1279C291.759 28.1279 296.538 29.4506 300.549 32.0959C304.645 34.7413 307.759 38.5386 309.893 43.4879C312.026 48.3519 313.093 54.0693 313.093 60.6399C313.093 67.2959 312.026 73.0986 309.893 78.0479C307.759 82.9119 304.645 86.6666 300.549 89.3119C296.538 91.9573 291.759 93.2799 286.213 93.2799ZM289.285 79.7119C292.869 79.7119 296.111 78.9013 299.013 77.2799C301.914 75.5733 304.175 73.2693 305.797 70.3679C307.503 67.4666 308.357 64.2239 308.357 60.6399C308.357 57.0559 307.503 53.8559 305.797 51.0399C304.175 48.1386 301.914 45.8773 299.013 44.2559C296.111 42.5493 292.869 41.6959 289.285 41.6959C285.786 41.6959 282.586 42.5493 279.685 44.2559C276.783 45.9626 274.479 48.2666 272.773 51.1679C271.151 54.0693 270.341 57.2266 270.341 60.6399C270.341 64.1386 271.151 67.3386 272.773 70.2399C274.479 73.1413 276.783 75.4453 279.685 77.1519C282.586 78.8586 285.786 79.7119 289.285 79.7119Z" fill="black"/>
<path d="M219.438 29.4079H233.646V38.1119C235.438 35.0399 237.784 32.6079 240.686 30.8159C243.672 29.0239 246.958 28.1279 250.542 28.1279C252.333 28.1279 254.296 28.3839 256.43 28.8959V41.9519C253.955 41.3546 251.864 41.0559 250.158 41.0559C247 41.0559 244.184 41.7386 241.71 43.1039C239.235 44.4693 237.272 46.4746 235.822 49.1199C234.371 51.7653 233.646 54.9226 233.646 58.5919V91.9999H219.438V29.4079Z" fill="black"/>
</svg>
